<mxfile host="app.diagrams.net" modified="2022-05-09T06:51:28.142Z" agent="5.0 (Windows NT 10.0; Win64; x64) AppleWebKit/537.36 (KHTML, like Gecko) Chrome/100.0.4896.60 Safari/537.36" etag="7hdNQr-BYIPYGQ2FvJEH" version="18.0.1" type="github">
  <diagram id="jbC2Zt3tx9CFVbumyFda" name="Page-1">
    <mxGraphModel dx="3076" dy="762" grid="1" gridSize="10" guides="1" tooltips="1" connect="1" arrows="1" fold="1" page="1" pageScale="1" pageWidth="1654" pageHeight="2336" math="0" shadow="0">
      <root>
        <mxCell id="0" />
        <mxCell id="1" parent="0" />
        <mxCell id="e7ZBUxs0c7WkvLIj3UUD-1" value="&lt;span style=&quot;background-color: initial;&quot;&gt;State&lt;br&gt;&lt;br&gt;approve()&lt;br&gt;disapprove()&lt;br&gt;refuse()&lt;br&gt;&lt;br&gt;&lt;/span&gt;" style="rounded=0;whiteSpace=wrap;html=1;" vertex="1" parent="1">
          <mxGeometry x="470" y="20" width="300" height="90" as="geometry" />
        </mxCell>
        <mxCell id="e7ZBUxs0c7WkvLIj3UUD-9" style="edgeStyle=orthogonalEdgeStyle;rounded=0;orthogonalLoop=1;jettySize=auto;html=1;entryX=0.5;entryY=1;entryDx=0;entryDy=0;" edge="1" parent="1" target="e7ZBUxs0c7WkvLIj3UUD-1">
          <mxGeometry relative="1" as="geometry">
            <mxPoint x="620" y="280" as="sourcePoint" />
          </mxGeometry>
        </mxCell>
        <mxCell id="e7ZBUxs0c7WkvLIj3UUD-14" value="" style="rounded=0;whiteSpace=wrap;html=1;" vertex="1" parent="1">
          <mxGeometry x="-80" y="570" width="120" height="60" as="geometry" />
        </mxCell>
        <mxCell id="e7ZBUxs0c7WkvLIj3UUD-19" style="edgeStyle=orthogonalEdgeStyle;rounded=0;orthogonalLoop=1;jettySize=auto;html=1;entryX=0.5;entryY=1;entryDx=0;entryDy=0;" edge="1" parent="1" source="e7ZBUxs0c7WkvLIj3UUD-15" target="e7ZBUxs0c7WkvLIj3UUD-1">
          <mxGeometry relative="1" as="geometry">
            <Array as="points">
              <mxPoint x="50" y="220" />
              <mxPoint x="620" y="220" />
            </Array>
          </mxGeometry>
        </mxCell>
        <mxCell id="e7ZBUxs0c7WkvLIj3UUD-15" value="GoodsFilingStateDefault&lt;span style=&quot;background-color: initial;&quot;&gt;&lt;br&gt;&lt;br&gt;approve()&lt;br&gt;disapprove()&lt;br&gt;refuse()&lt;br&gt;&lt;br&gt;&lt;/span&gt;" style="rounded=0;whiteSpace=wrap;html=1;" vertex="1" parent="1">
          <mxGeometry x="-100" y="280" width="300" height="90" as="geometry" />
        </mxCell>
        <mxCell id="e7ZBUxs0c7WkvLIj3UUD-16" value="GoodsWarehousingStateDefault&lt;span style=&quot;background-color: initial;&quot;&gt;&lt;br&gt;&lt;br&gt;approve()&lt;br&gt;disapprove()&lt;br&gt;refuse()&lt;br&gt;&lt;br&gt;&lt;/span&gt;" style="rounded=0;whiteSpace=wrap;html=1;" vertex="1" parent="1">
          <mxGeometry x="470" y="280" width="300" height="90" as="geometry" />
        </mxCell>
        <mxCell id="e7ZBUxs0c7WkvLIj3UUD-18" style="edgeStyle=orthogonalEdgeStyle;rounded=0;orthogonalLoop=1;jettySize=auto;html=1;entryX=0.5;entryY=1;entryDx=0;entryDy=0;" edge="1" parent="1" source="e7ZBUxs0c7WkvLIj3UUD-17" target="e7ZBUxs0c7WkvLIj3UUD-1">
          <mxGeometry relative="1" as="geometry">
            <Array as="points">
              <mxPoint x="1080" y="220" />
              <mxPoint x="620" y="220" />
            </Array>
          </mxGeometry>
        </mxCell>
        <mxCell id="e7ZBUxs0c7WkvLIj3UUD-17" value="GoodsLeaveWarehouseStateDefault&lt;span style=&quot;background-color: initial;&quot;&gt;&lt;br&gt;&lt;br&gt;approve()&lt;br&gt;disapprove()&lt;br&gt;refuse()&lt;br&gt;&lt;br&gt;&lt;/span&gt;" style="rounded=0;whiteSpace=wrap;html=1;" vertex="1" parent="1">
          <mxGeometry x="930" y="280" width="300" height="90" as="geometry" />
        </mxCell>
      </root>
    </mxGraphModel>
  </diagram>
</mxfile>
